<svg width="161" height="85" viewBox="0 0 161 85" fill="none" xmlns="http://www.w3.org/2000/svg">
<path d="M149.598 80.0698C147.229 76.652 150.216 77.7607 149.765 79.4447C149.321 81.1032 149.48 82.0925 146.453 80.9886C144.705 80.3515 143.681 77.8101 143.959 76.7725C144.277 75.5844 149.806 78.3887 150.609 79.0009" stroke="black" stroke-width="5.33469" stroke-linecap="round"/>
<path d="M8.91536 43.726C1.24676 43.3565 2.94532 38.2294 6.60124 39.4337C7.62071 39.7695 10.1859 40.6973 10.2185 41.6099C10.2589 42.74 10.2719 44.5517 8.07256 43.9624" stroke="black" stroke-width="5.33469" stroke-linecap="round"/>
<path d="M66.6309 52.4059C64.0722 51.6829 58.2005 49.7535 58.6379 47.5035C59.134 44.9514 61.0727 46.1774 63.8422 45.4471" stroke="black" stroke-width="5.33469" stroke-linecap="round"/>
<path d="M107.754 30.2961C83.5006 23.3338 59.7551 15.3644 35.3578 8.8271C28.4308 6.97101 21.5038 5.11493 14.5767 3.25884" stroke="black" stroke-width="5.33469" stroke-linecap="round"/>
</svg>
