<svg width="650" height="784" viewBox="0 0 650 784" fill="none" xmlns="http://www.w3.org/2000/svg">
<path d="M74.666 162.133C362.774 268.746 461.038 299.569 474.157 301.655L439.294 190.08L477.259 322.424L346.829 383.358M125.34 758.692L448.368 538.563L264.71 480.049L415.235 543.511C421.458 595.327 433.114 701.806 429.962 713.197C426.809 724.588 446.012 601.771 456.007 538.938M-101.121 370C-28.0945 378.667 121.302 395.4 134.673 393C148.043 390.6 134.022 357.333 125.34 341C148.669 358.15 190.167 394.961 169.536 405C148.905 415.039 113.835 424.183 98.8787 427.5L110.614 405" stroke="black" stroke-width="6"/>
<path d="M646.514 3.70349C638.877 28.0821 628.649 51.4194 619.714 75.3146C614.803 88.4488 609.61 102.699 609.61 116.905C609.61 123.414 607.819 123.182 603.752 118.662C597.454 111.665 590.335 105.288 584.861 97.5741C581.461 92.7836 575.193 73.5082 583.982 90.0322C588.406 98.35 594.241 108.481 600.457 115.733C602.618 118.254 603.92 117.355 606.388 118.662C607.867 119.445 607.29 123.372 608.585 124.666C615.119 131.2 628.983 102.71 631.283 100.357C633.288 98.3049 641.45 94.2322 641.242 90.6912C641.014 86.8209 634.284 93.2512 633.773 93.6201C627.713 97.9913 621.605 101.108 614.882 104.164C610.829 106.006 616.201 106.654 618.836 107.825" stroke="black" stroke-width="6" stroke-linecap="round"/>
</svg>
