<svg width="439" height="568" viewBox="0 0 439 568" fill="none" xmlns="http://www.w3.org/2000/svg">
<path d="M21.1207 3C6.2909 33.9681 2.89103 64.6148 3.00263 98.8747C3.216 164.381 11.0723 246.18 70.9453 286.22C108.045 311.031 193.871 342.701 232.498 302.199C249.38 284.498 250.757 252.204 243.067 230.23C238.492 217.159 229.286 215.237 215.638 216.516C170.347 220.762 168.427 275.617 175.879 309.497C193.015 387.409 244.108 467.287 315.665 504.769C339.288 517.143 371.542 535.218 399.335 535.218" stroke="#161616" stroke-width="6" stroke-linecap="round"/>
<path d="M365.064 431C380.153 456.651 395.608 478.471 414.889 501.207C421.694 509.233 440.053 526.405 433.762 539.205C430.088 546.68 419.478 548.169 412.372 549.774C391.805 554.418 371.251 555.381 350.217 555.562C313.229 555.88 276.233 555.274 239.244 555.562C200.272 555.865 163.488 560.284 125 564.621" stroke="#161616" stroke-width="6" stroke-linecap="round"/>
</svg>
