<svg width="261" height="150" viewBox="0 0 261 150" fill="none" xmlns="http://www.w3.org/2000/svg">
<path d="M69.4041 146.648C56.1538 143.79 43.58 138.135 30.9128 133.416C25.295 131.323 19.6803 129.195 14.8664 125.543C8.81637 120.954 6.01136 111.493 3.94545 104.505C2.47435 99.5296 2.96223 93.9753 3.77795 88.928C5.09717 80.7653 7.02903 72.5461 8.83642 64.4732C10.6112 56.5459 15.108 46.6334 20.5613 40.3868C24.3884 36.003 29.8995 34.0561 34.7653 31.0739C39.0329 28.4582 43.0361 25.6115 47.7297 23.7709C52.0166 22.0898 56.5025 20.9969 60.7946 19.3154C79.8385 11.855 100.269 8.29763 120.391 4.94402C136.468 2.26453 152.743 3.13503 168.999 3.13503C182.074 3.13503 194.608 6.95327 206.887 10.974C211.668 12.5392 216.792 12.9865 221.426 14.9605C226.729 17.2192 231.917 19.8069 236.903 22.6989C240.368 24.7088 242.888 27.5533 244.876 31.0069C248.362 37.0611 251.985 42.8133 254.658 49.2978C258.288 58.1035 257.539 67.428 257.539 76.7676C257.539 84.9375 258.559 90.641 253.318 97.0685C250.85 100.095 248.743 103.428 246.383 106.549C242.523 111.654 236.614 115.416 231.677 119.413C221.368 127.758 209.41 132.469 196.569 135.057C190.37 136.307 184.251 136.397 177.943 136.397C161.607 136.397 145.27 136.397 128.933 136.397C117.666 136.397 106.399 136.397 95.1319 136.397C91.349 136.397 87.5378 136.71 83.876 135.794" stroke="#161616" stroke-width="5" stroke-linecap="round"/>
</svg>
