<svg width="156" height="43" viewBox="0 0 156 43" fill="none" xmlns="http://www.w3.org/2000/svg">
<path d="M29 12.6521C26.0638 11.612 23.1612 10.8432 19.9951 11.0273C17.0315 11.1996 13.2268 12.4821 11.1547 14.6629C6.01132 20.0761 22.0583 24.8724 24.9958 26.3146C25.7566 26.6881 27.4122 27.2617 26.8242 28.3523C25.7026 30.4325 22.9417 32.0112 20.955 33.1009C16.7313 35.4175 12.8458 35.5407 8.3481 33.8729C6.56769 33.2127 4.36592 32.4134 3 31.0722" stroke="#161616" stroke-width="5" stroke-linecap="round"/>
<path d="M37 15C40.7537 14.8069 44.4143 14.5646 48 13" stroke="#161616" stroke-width="5" stroke-linecap="round"/>
<path d="M36 14V31" stroke="#161616" stroke-width="5" stroke-linecap="round"/>
<path d="M36 26C40.2949 24.5874 44.5216 23.4734 48.9244 22.5133C49.8102 22.3202 51.1088 21.7576 52 22.1179" stroke="#161616" stroke-width="5" stroke-linecap="round"/>
<path d="M38 35C44.6819 33.8248 51.3889 32.5002 58 31" stroke="#161616" stroke-width="5" stroke-linecap="round"/>
<path d="M67 31.7395C68.0814 25.7829 67.4962 19.4873 67.4962 13.4602C67.4962 11.4218 67.4425 9.375 67.4962 7.33699C67.5118 6.74492 67.9037 7.03211 68.1763 7.30075C70.5054 9.59656 72.825 12.1091 74.8847 14.6378C77.3647 17.6825 79.533 20.9364 81.391 24.3843C82.7085 26.8293 83.849 29.4015 85.4252 31.7032C85.6492 32.0303 86.0493 32.8135 86.4361 32.9895C86.7559 33.135 86.9732 31.7272 87.0334 31.5492C88.6646 26.7257 88.1729 21.2667 88.1729 16.2683C88.1729 12.546 87.5679 8.52893 89 5" stroke="#161616" stroke-width="5" stroke-linecap="round"/>
<path d="M102.003 8C102.003 12.8398 102.003 17.6797 102.003 22.5195C102.003 24.5765 101.929 26.483 102.495 28.423C102.731 29.2327 102.544 30.1076 102.751 30.9333C102.861 31.3721 103 31.5093 103 32" stroke="#161616" stroke-width="5" stroke-linecap="round"/>
<path d="M102.897 7.72726C107.677 5.95356 113.852 7.65719 117.95 10.3292C119.389 11.2674 121.543 12.2739 122.485 13.7653C123.346 15.1278 122.874 17.5916 122.843 19.1143C122.791 21.6182 122.123 23.8776 120.396 25.7688C118.044 28.3448 114.893 30.6464 111.766 32.2058C108.186 33.9908 104.09 34.98 100.084 34.98C99.5697 34.98 98.353 35.0842 99.4338 34.8168" stroke="#161616" stroke-width="5" stroke-linecap="round"/>
<path d="M152.563 2.78906C151.083 6.43856 149.56 10.0723 148.111 13.7343C146.829 16.9731 145.743 20.325 144.22 23.4617C143.516 24.9117 143.071 26.3864 142.883 27.9853" stroke="#161616" stroke-width="5" stroke-linecap="round"/>
<path d="M141.887 39.0889C142.27 39.575 142.62 39.8113 143.168 40.0853" stroke="#161616" stroke-width="5" stroke-linecap="round"/>
</svg>
