<svg width="308" height="44" viewBox="0 0 308 44" fill="none" xmlns="http://www.w3.org/2000/svg">
<path d="M90.1816 42.4484C99.3986 39.6008 108.863 36.8465 117.641 33.7615C124.102 31.4906 129.016 29.0216 132.18 25.7435C134.86 22.9672 136.011 20.1654 137.119 17.2465C137.867 15.2772 137.864 13.2977 139.687 11.4167C141.986 9.04509 146.78 7.37581 151.58 5.88422C158.95 3.59379 167.819 2.5434 176.866 2.13532C180.212 1.98436 183.656 1.98343 187.02 2.01971C189.77 2.04938 191.768 2.51481 194.191 3.01061C198.891 3.97252 203.755 4.56873 208.79 5.14104C214.236 5.76015 219.369 6.61967 224.396 7.69261C231.958 9.30664 236.989 11.3714 240.417 14.5876C242.897 16.9139 245.466 19.276 246.482 21.8047C247.317 23.8831 248.582 25.9665 249.643 28.0308C250.467 29.6356 250.461 31.3876 251.658 32.944C253.104 34.8245 255.698 36.8598 258.592 38.4187C260.379 39.3817 262.918 40.4909 265.842 40.8134C268.169 41.0701 270.727 40.962 273.111 40.962C284.2 40.962 295.289 40.962 306.378 40.962" stroke="#161616" stroke-width="3" stroke-linecap="round"/>
<path d="M175.878 19.8561C175.198 21.1198 174.456 20.063 174.456 19.4102" stroke="#161616" stroke-width="3" stroke-linecap="round"/>
<path d="M230.639 16.2886C231.099 16.5427 231.574 16.7873 232.061 17.0317" stroke="#161616" stroke-width="3" stroke-linecap="round"/>
<path d="M210.015 21.4907C212.815 21.4907 214.602 21.5965 216.06 22.5642C217.305 23.3912 214.704 24.4944 213.215 24.9093" stroke="#161616" stroke-width="3" stroke-linecap="round"/>
<path d="M190.812 32.1924C201.532 33.2617 212.072 34.2733 223.171 34.2733" stroke="#161616" stroke-width="3" stroke-linecap="round"/>
<path d="M2 41.8515C27.7876 41.8515 53.6367 42.0706 79.3986 41.5435C85.1698 41.4254 90.7052 41.6383 96.3747 41.6383" stroke="#161616" stroke-width="3" stroke-linecap="round"/>
</svg>
