<svg width="249" height="76" viewBox="0 0 249 76" fill="none" xmlns="http://www.w3.org/2000/svg">
<path d="M6.04231 29.9249C7.49968 28.8209 9.38599 27.0003 9.38599 30.1142C9.38599 31.2452 7.92786 31.0826 7.1779 31.0605C5.06643 30.9984 3.67022 26.5371 5.72687 25.5087C8.37575 24.1843 9.90194 26.4906 10.0169 28.7893C10.1148 30.7485 7.07894 30.1958 6.61011 28.7893" stroke="black" stroke-width="8" stroke-linecap="round"/>
<path d="M132.093 15.1622C133.588 15.1622 137.183 14.614 138.212 16.2978C138.935 17.4797 137.01 17.6525 136.32 17.3072C135.228 16.7616 136.866 16.3822 135.941 17.3072C135.26 17.9882 133.7 17.1803 133.228 16.8656" stroke="black" stroke-width="8" stroke-linecap="round"/>
<path d="M74.7447 29.3571C74.261 30.8384 71.9887 37.0276 75.1232 37.3062C79.0365 37.6541 82.6817 38.4418 86.6684 38.4418" stroke="black" stroke-width="8" stroke-linecap="round"/>
<path d="M69.6348 71.374C79.0395 71.2247 88.4136 67.8024 97.4252 65.3806C107.132 62.7719 116.143 58.9681 125.279 54.9079" stroke="black" stroke-width="8" stroke-linecap="round"/>
<path d="M215.829 62.3233C215.458 52.1114 211.986 43.4027 208.395 34.0669C206.758 29.8082 206.574 26.1302 206.687 21.6009C206.812 16.5999 208.883 11.9465 210.011 7.14948C210.96 3.12019 216.598 3.77656 218.599 6.68778C221.758 11.2829 221.646 15.8901 221.646 21.2315C221.646 27.5506 222.013 28.2494 228.11 28.2494C233.131 28.2494 236.324 27.5882 239.93 31.5737C245.307 37.5168 244.085 45.3625 244.085 52.766C244.085 60.2361 225.051 57.3369 219.153 57.3369" stroke="black" stroke-width="8" stroke-linecap="round"/>
</svg>
