<svg width="277" height="117" viewBox="0 0 277 117" fill="none" xmlns="http://www.w3.org/2000/svg">
<path d="M115.543 19.3485C114.997 17.9147 113.31 11.521 116.596 11.521C119.681 11.521 119.663 13.4138 119.663 15.8467C119.663 17.6726 118.132 17.7006 116.459 17.7006C114.926 17.7006 115.055 17.0607 114.628 15.7323C114.103 14.0983 115.017 13.9403 116.367 13.1689" stroke="#161616" stroke-width="6" stroke-linecap="round"/>
<path d="M266.738 73.7287C267.127 71.9555 269.293 68.5298 271.659 69.8607C272.904 70.561 273.94 75.1434 272.048 75.3537C270.457 75.5305 268.755 75.3766 267.15 75.3766C265.849 75.3766 261.282 72.749 262.618 72.0808" stroke="#161616" stroke-width="6" stroke-linecap="round"/>
<path d="M183.519 54.7781C181.733 56.5646 176.122 60.5633 178.598 63.8644C180.835 66.8471 183.873 68.7852 187.639 68.7852" stroke="#161616" stroke-width="6" stroke-linecap="round"/>
<path d="M264.203 73.1484C262.914 71.3436 262.611 68.6194 265.177 68.1259C265.525 68.059 265.836 67.8298 266.194 67.8656C266.962 67.9424 267.569 68.5269 268.26 68.8314C269.553 69.4018 268.955 71.0588 269.192 72.2413" stroke="#161616" stroke-width="6" stroke-linecap="round"/>
<path d="M139.979 85.3394C166.831 106.821 204.37 113.336 237.967 113.336" stroke="#161616" stroke-width="6" stroke-linecap="round"/>
<path d="M9.92188 3.38599C11.0494 4.51354 12.0052 5.61718 12.9087 6.94861C13.2139 7.39831 16.6201 12.4607 16.7412 12.2386C17.2425 11.3197 17.6924 10.0569 18.5225 9.37766C20.0624 8.1178 22.7791 6.58606 24.7481 7.7403C27.5763 9.39819 26.659 15.7666 25.2879 17.9603C23.9888 20.039 22.3343 22.3865 20.2859 23.7901C19.2278 24.515 17.9734 24.4832 17.0471 25.4095" stroke="#161616" stroke-width="6" stroke-linecap="round"/>
<path d="M4.41602 14.0737C6.39641 18.5098 9.39291 22.4082 11.5413 26.7048" stroke="#161616" stroke-width="6" stroke-linecap="round"/>
<path d="M7.83688 3C6.27184 5.7158 4.63441 8.38699 3 11.0615" stroke="#161616" stroke-width="6" stroke-linecap="round"/>
</svg>
