<svg width="465" height="395" viewBox="0 0 465 395" fill="none" xmlns="http://www.w3.org/2000/svg">
<path d="M82.7292 25.1929C79.9769 32.901 79.8929 39.0161 81.0991 47.1564C84.6201 70.918 95.07 91.0662 109.839 109.989C119.927 122.915 137.785 140.718 155.822 137.367" stroke="#161616" stroke-width="5" stroke-linecap="round"/>
<path d="M84.7427 23.6707C88.2845 18.5127 95.9931 12.0752 102.634 11.7975C107.201 11.6066 113.05 16.679 116.409 19.3192C122.958 24.4666 124.608 29.3397 119.985 35.8177C115.856 41.6025 110.84 45.0535 105.646 49.6467" stroke="#161616" stroke-width="5" stroke-linecap="round"/>
<path d="M107.336 55.6489C108.183 64.8549 110.972 71.8766 115.234 79.9576C117.852 84.9225 119.563 90.0467 123.043 94.521C126.584 99.0737 129.741 102.994 134.545 106.293" stroke="#161616" stroke-width="5" stroke-linecap="round"/>
<path d="M138.239 95.2702C141.18 90.9883 144.631 83.3345 149.546 80.9198C152.038 79.6956 156.052 82.5047 157.973 83.6929C164.856 87.9526 171.087 93.0008 177.462 97.9367C180.795 100.517 186.285 104.545 184.388 108.772C181.779 114.586 177.671 121.317 173.058 125.743C171.727 127.02 164.426 133.515 166.795 128.438" stroke="#161616" stroke-width="5" stroke-linecap="round"/>
<path d="M148.024 172.752C155.393 184.045 163.182 194.416 163.88 208.233C164.469 219.908 164.179 231.813 167.566 243.124C174.063 264.821 212.203 233.488 223.358 229.196C230.261 226.54 242.197 222.451 248.476 228.97C256.595 237.397 250.442 256.588 247.802 265.767C244.32 277.877 239.265 289.28 234.719 300.978C233.739 303.501 236.156 304.831 237.969 306.075C245.689 311.376 253.58 316.488 261.153 321.995C263.674 323.828 259.319 323.385 258.265 322.97C255.398 321.842 259.55 313.051 260.072 311.452C273.511 270.233 327.6 247.002 366.763 239.556C398.279 233.564 433.122 233.927 462.07 248.601" stroke="#161616" stroke-width="5" stroke-linecap="round"/>
</svg>
