<svg width="595" height="620" viewBox="0 0 595 620" fill="none" xmlns="http://www.w3.org/2000/svg">
<path d="M234.09 209.511C218.282 198.825 208.465 181.352 199.576 164.812C188.528 144.254 187.092 115.874 194.843 93.8675C203.14 70.31 225.086 53.8974 248.47 47.0108C268.723 41.0465 284.922 45.6392 301.379 58.1558C328.233 78.5803 349.654 105.239 367.949 133.354C379.618 151.288 401.803 180.252 378.255 198.246C359.918 212.258 332.935 213.193 310.906 213.706C295.017 214.075 279.103 213.825 263.21 213.825" stroke="black" stroke-width="6" stroke-linecap="round"/>
<path d="M84.1718 419.827C78.4191 402.94 74.2648 383.709 78.2398 365.96C83.5094 342.431 106.243 326.487 125.816 315.328C147.294 303.084 172.253 291.889 197.299 290.402C222.305 288.918 240.683 301.767 256.379 319.882C271.508 337.343 286.181 357.735 291.911 380.46C297.71 403.461 297.288 435.758 278.01 452.723C239.429 486.674 181.551 458.595 142.413 441.398" stroke="black" stroke-width="6" stroke-linecap="round"/>
<path d="M435.778 240.789C449.744 240.789 465.707 240.718 473.287 254.93C478.148 264.044 477.683 276.012 478.32 286.028C478.905 295.226 481.845 310.514 470.291 313.89C457.09 317.748 440.221 317.321 426.67 315.808C407.491 313.666 403.936 289.217 401.144 273.625C399.998 267.219 395.087 246.96 405.099 244.264C419.482 240.392 436.822 249.819 449.799 254.81" stroke="black" stroke-width="6" stroke-linecap="round"/>
<path d="M543.631 59.5939C561.251 54.8952 593.88 45.5323 590.847 74.6935C587.897 103.064 556.989 91.3145 540.396 84.4004" stroke="black" stroke-width="6" stroke-linecap="round"/>
<path d="M33.4804 3.50979C43.4649 3.50979 53.7947 1.64866 59.5452 11.6588C63.5037 18.5494 62.987 34.3288 59.725 41.3187C56.27 48.7223 45.5551 44.4564 40.0715 42.4572C26.8718 37.6448 13.61 31.313 3.28125 21.845" stroke="black" stroke-width="6" stroke-linecap="round"/>
<path d="M415.06 587.37C425.665 579.065 453.159 555.051 468.156 570.762C475.861 578.834 481.636 601.69 471.302 609.64C440.341 633.456 378.824 587.11 378.824 553.398" stroke="black" stroke-width="6" stroke-linecap="round"/>
</svg>
