<svg width="52" height="63" viewBox="0 0 52 63" fill="none" xmlns="http://www.w3.org/2000/svg">
<path d="M26.4972 56.8663C30.9434 45.8143 38.6398 36.1884 45.5982 26.6503C46.4188 25.5254 48.8367 23.1608 47.4663 22.9141C44.6895 22.4143 41.5097 22.8207 38.7097 22.8207C28.9724 22.8207 19.235 22.8207 9.4977 22.8207C7.80798 22.8207 5.45899 22.4519 3.77673 22.8908C2.44229 23.2389 6.53637 26.0196 6.69559 26.1365C14.1941 31.6456 22.5854 36.0971 30.6536 40.7075C34.1553 42.7085 37.4485 45.0543 40.9981 46.9656C42.2222 47.6247 48.5862 47.0401 48.0734 45.8681C43.0151 34.3062 39.1204 22.1408 34.0629 10.5381C33.8884 10.1379 31.3777 2.90644 30.7003 3.06583C29.9087 3.2521 29.7347 5.96206 29.6729 6.28826C28.7457 11.1817 27.7266 16.0724 27.151 21.0227C25.9457 31.3882 26.0769 41.7389 26.0769 52.1495C26.0769 54.498 25.8861 57.3254 26.9175 59.3882" stroke="#161616" stroke-width="6" stroke-linecap="round"/>
</svg>
