<svg width="400" height="170" viewBox="0 0 400 170" fill="none" xmlns="http://www.w3.org/2000/svg">
<path d="M107 86.3348C107.998 86.9584 141.058 110.095 142.429 102.555C142.965 99.6085 144.1 96.7183 145.417 94.0181C148.856 86.9683 151.378 79.4105 154.282 72.1501" stroke="#161616" stroke-width="6" stroke-linecap="round"/>
<path d="M142.461 108.794C144.355 117.208 147.643 125.006 149.882 133.288C151.716 140.069 152.112 146.895 155.464 153.121" stroke="#161616" stroke-width="6" stroke-linecap="round"/>
<path d="M173.195 126.525C173.636 114.466 173.658 102.297 177.004 90.6032C178.768 84.4366 181.216 78.4964 182.848 72.2814C183.241 70.7865 182.652 67.2657 184.096 67.8159C185.423 68.3214 186.692 70.9088 187.379 71.9531C191.945 78.8923 197.991 85.0262 203.337 91.3913C205.314 93.7443 206.902 96.87 209.247 98.7463" stroke="#161616" stroke-width="6" stroke-linecap="round"/>
<path d="M182.651 99.3373C187.464 91.7745 195.463 88.7397 203.928 86.9258" stroke="#161616" stroke-width="6" stroke-linecap="round"/>
<path d="M227.569 78.0604C232.45 70.1936 237.151 63.3267 237.617 53.894C237.809 50.0076 243.197 56.5809 244.052 57.5715C251.916 66.6726 257.848 76.7528 263.622 87.2541C265.441 90.5628 267.6 93.6414 269.467 96.9076C270.113 98.0388 267.776 95.8056 267.759 95.7912" stroke="#161616" stroke-width="6" stroke-linecap="round"/>
<path d="M230.524 74.5141C234.615 71.7075 239.089 69.4472 242.345 65.6487" stroke="#161616" stroke-width="6" stroke-linecap="round"/>
<path d="M262.44 62.6937C261.57 60.3529 259.15 56.295 260.174 53.6313C261.298 50.7096 263.335 48.4248 265.264 46.0136C266.321 44.6914 273.227 34.8528 275.475 36.8198C277.118 38.2573 277.698 40.7295 278.66 42.5988C279.939 45.0839 281.813 47.1978 283.06 49.6911C284.983 53.538 284.722 58.3799 287.854 61.5116" stroke="#161616" stroke-width="6" stroke-linecap="round"/>
<path d="M270.123 54.4193C275.391 51.7181 281.059 50.886 286.672 49.1001" stroke="#161616" stroke-width="6" stroke-linecap="round"/>
<path d="M307.948 37.8704C307.983 35.5113 307.555 28.4556 311.035 27.8229C316.464 26.8357 321.601 24.7131 326.861 23.0947" stroke="#161616" stroke-width="6" stroke-linecap="round"/>
<path d="M396.603 14.8205C386.463 14.8205 376.207 8.98025 368.233 3" stroke="#161616" stroke-width="6" stroke-linecap="round"/>
<path d="M325.035 24.2351C326.693 27.6164 327.181 33.3965 330.463 35.5843" stroke="#161616" stroke-width="6" stroke-linecap="round"/>
<path d="M315.66 32.6238C318.487 32.1716 321.2 32.1304 324.049 32.1304" stroke="#161616" stroke-width="6" stroke-linecap="round"/>
<path d="M10.7019 98.3545C8.5522 109.942 6.23882 121.437 3.65771 132.935" stroke="#161616" stroke-width="6" stroke-linecap="round"/>
<path d="M10.7019 166.875L10.0615 163.033" stroke="#161616" stroke-width="6" stroke-linecap="round"/>
</svg>
