<svg width="204" height="122" viewBox="0 0 204 122" fill="none" xmlns="http://www.w3.org/2000/svg">
<path d="M6.05312 44.408C13.9573 50.8053 3.5858 50.3006 3.03152 46.8842C2.46921 43.4183 9.67246 46.2913 5.44201 46.2913" stroke="black" stroke-width="6" stroke-linecap="round"/>
<path d="M194.886 8.6245C189.142 0.0189779 201.204 2.54179 200.997 7.85721C200.911 10.0867 194.979 8.0225 194.071 7.08992C193.172 6.16597 195.497 5.72429 195.497 7.99672" stroke="black" stroke-width="6" stroke-linecap="round"/>
<path d="M127.664 29.969C129.899 31.5644 139.275 34.8042 139.275 38.5486C139.275 45.9598 132.279 47.2827 127.053 49.4301" stroke="black" stroke-width="6" stroke-linecap="round"/>
<path d="M85.638 99.2202C92.3206 99.7589 112.155 93.816 117.874 96.231C120.531 97.3531 125.626 101.542 125.932 103.467C127.119 110.949 112.226 112.425 103.497 114.426C92.9569 116.842 81.9851 121.403 72.1917 116.13C65.7963 112.688 58.1443 105.546 56.3074 100.475C55.0716 97.0641 58.3913 95.77 60.7133 92.8565C61.8639 91.4127 62.7969 88.7166 65.5249 88.7166C72.9801 88.7166 81.5117 89.6659 88.4239 91.2214" stroke="black" stroke-width="6" stroke-linecap="round"/>
</svg>
